<?xml version="1.0" encoding="utf-8"?>
<!-- Generator: Adobe Illustrator 21.1.0, SVG Export Plug-In . SVG Version: 6.00 Build 0)  -->
<svg version="1.1" id="Layer_1" xmlns="http://www.w3.org/2000/svg" xmlns:xlink="http://www.w3.org/1999/xlink" x="0px" y="0px"
	 viewBox="0 0 34 34" style="enable-background:new 0 0 34 34;" xml:space="preserve">
<style type="text/css">
	.st0{fill:#FFFFFF;}
</style>
<g>
	<g>
		<path class="st0" d="M33.7,28.7l-8.3-8.3c-0.5-0.5-1.2-0.5-1.7,0l-3.3,3.3c-0.5,0.5-0.5,1.2,0,1.7l8.3,8.3c0.5,0.5,1.2,0.5,1.7,0
			l3.3-3.3C34.1,29.9,34.1,29.1,33.7,28.7z M21,18.1c3.1-4.5,2.7-10.8-1.3-14.8c-4.5-4.5-11.8-4.5-16.3,0C1.2,5.6,0,8.5,0,11.6
			s1.2,6,3.4,8.2s5.1,3.4,8.2,3.4c2.4,0,4.7-0.7,6.6-2.1l1.1,1.1l2.9-2.9L21,18.1z M17.4,17.4c-1.6,1.6-3.6,2.4-5.9,2.4
			c-2.2,0-4.3-0.9-5.9-2.4c-1.6-1.6-2.4-3.6-2.4-5.9c0-2.2,0.9-4.3,2.4-5.9C7.2,4,9.3,3.2,11.5,3.2c2.1,0,4.2,0.8,5.9,2.4
			C20.6,8.9,20.6,14.2,17.4,17.4z"/>
	</g>
</g>
</svg>
