<?xml version="1.0" encoding="utf-8"?>
<!-- Generator: Adobe Illustrator 27.0.0, SVG Export Plug-In . SVG Version: 6.00 Build 0)  -->
<svg version="1.1" id="Layer_1" xmlns="http://www.w3.org/2000/svg" xmlns:xlink="http://www.w3.org/1999/xlink" x="0px" y="0px"
	 viewBox="0 0 42 32.3" style="enable-background:new 0 0 42 32.3;" xml:space="preserve">
<style type="text/css">
	.st0{fill:#161E24;}
</style>
<path class="st0" d="M21,32.3L0,0h12.5l12.1,18.5l9.3-14.3h-1.8l-7.5,11.6l-2.7-4.1L29.5,0H42L26.3,24l-1.8-2.7L21,26.8L5.3,2.7h5.4
	l11.2,17.2L21,21.3L9.9,4.3H8.1L21,24l2.7-4.1l-12-18.4H2.8l18.2,28l3.6-5.5l0.9,1.4L21,32.3z M25.5,19.9l0.9,1.4L39.2,1.5h-8.9
	l-6.6,10.2l0.9,1.4l6.7-10.3h5.4L25.5,19.9z"/>
</svg>
