<?xml version="1.0" encoding="utf-8"?>
<!-- Generator: Adobe Illustrator 27.2.0, SVG Export Plug-In . SVG Version: 6.00 Build 0)  -->
<svg version="1.1" id="Layer_1" xmlns="http://www.w3.org/2000/svg" xmlns:xlink="http://www.w3.org/1999/xlink" x="0px" y="0px"
	 viewBox="0 0 37 37" style="enable-background:new 0 0 37 37;" xml:space="preserve">
<style type="text/css">
	.st0{fill:#FFFFFF;}
</style>
<path class="st0" d="M35.7,2.3l-1.1-1.1l0,0c-1.6-1.6-4.1-1.6-5.6,0l-0.7,0.7c-1.8-1.2-4.3-1-5.9,0.6l-9.3,9.3c-0.4,0.4-0.4,1,0,1.4
	c0.2,0.2,0.5,0.3,0.7,0.3c0.2,0,0.5-0.1,0.7-0.3l9.3-9.3c0.8-0.8,2-1,3-0.6l-2,2L7.5,22.8c-0.3,0.3-0.4,0.7-0.2,1
	c-1.4,0.1-2.7,0.6-3.7,1.6c-1.9,2-3.3,9-3.6,10.4c-0.2,1,0.3,1.3,1.2,1.2c1.4-0.2,8.4-1.6,10.3-3.5l0,0l0,0c1-1,1.5-2.3,1.6-3.7
	c0.1,0,0.2,0.1,0.3,0.1c0.3,0,0.5-0.1,0.7-0.3l17.5-17.5L35.7,8c0.8-0.8,1.2-1.8,1.2-2.8S36.5,3.1,35.7,2.3z M10.1,32L10.1,32
	c-0.8,0.8-3.4,1.6-5.9,2.2L7,31.4c0.4-0.4,0.4-1,0-1.4c-0.4-0.4-1-0.4-1.4,0l-2.8,2.8c0.6-2.5,1.5-5.1,2.2-5.9
	c0.7-0.7,1.6-1.1,2.5-1.1c1,0,1.9,0.4,2.5,1.1c0.7,0.7,1.1,1.6,1.1,2.5C11.2,30.4,10.8,31.3,10.1,32z M34.3,6.6L30.9,10l-3.9-3.9
	l3.4-3.4c0.8-0.8,2-0.8,2.8,0l1.1,1.1c0.4,0.4,0.6,0.8,0.6,1.4S34.7,6.2,34.3,6.6z"/>
</svg>
