<?xml version="1.0" encoding="utf-8"?>
<!-- Generator: Adobe Illustrator 21.1.0, SVG Export Plug-In . SVG Version: 6.00 Build 0)  -->
<svg version="1.1" id="Layer_1" xmlns="http://www.w3.org/2000/svg" xmlns:xlink="http://www.w3.org/1999/xlink" x="0px" y="0px"
	 viewBox="0 0 53 40" style="enable-background:new 0 0 53 40;" xml:space="preserve">
<style type="text/css">
	.st0{fill:#FFFFFF;}
</style>
<path class="st0" d="M52.7,8.7L27.1,0C27,0,27,0,26.9,0L0.3,8.7c-0.4,0.1-0.4,0.6,0,0.8l5.3,2c-1.1,0.9-2.7,3.2-2.6,7.7
	c-1.2,0.5-2.1,1.6-2.1,3s0.9,2.6,2.2,3.1L0.7,40c0.8,0,0.8-1,1.7-1c0.8,0,0.8,1,1.7,1c0.8,0,0.8-1,1.7-1c0.8,0,0.8,1,1.7,1L4.9,25.3
	c1.4-0.4,2.4-1.6,2.4-3.1s-1.1-2.8-2.5-3.1c0-4.1,1.6-6.1,2.5-6.8l19.5,7.5c0.1,0,0.2,0,0.3,0L52.7,9.4C53.1,9.3,53.1,8.8,52.7,8.7z
	 M43,16.2l-16,5.7l-16.1-5.7l-1,7.2c-0.6,4.1,7.5,8.8,17.1,8.8s17.7-4.7,17.1-8.8L43,16.2z"/>
</svg>
