<?xml version="1.0" encoding="utf-8"?>
<!-- Generator: Adobe Illustrator 27.2.0, SVG Export Plug-In . SVG Version: 6.00 Build 0)  -->
<svg version="1.1" id="Layer_1" xmlns="http://www.w3.org/2000/svg" xmlns:xlink="http://www.w3.org/1999/xlink" x="0px" y="0px"
	 viewBox="0 0 36 47.8" style="enable-background:new 0 0 36 47.8;" xml:space="preserve">
<style type="text/css">
	.st0{fill:#FF80AA;}
</style>
<g>
	<g>
		<path class="st0" d="M30.4,1.3c-1.8-1.8-4.7-1.8-6.5,0l-3.3,3.4l-1.5-1.5c-0.7-0.7-1.8-0.7-2.4,0c-0.7,0.7-0.7,1.8,0,2.4l9.5,9.5
			c0.5,0.5,1.1,0.6,1.7,0.4c0.3-0.1,0.5-0.2,0.8-0.4c0.7-0.7,0.7-1.8,0-2.4l-1.5-1.5l3.3-3.4C32.1,6.1,32.1,3.1,30.4,1.3z M0,43.7
			c0,2.3,1.8,4.1,4.1,4.1c2.2,0,4.1-1.8,4.1-4.1c0-2.2-4-8.7-4.1-8.7C4,35.1,0,41.5,0,43.7z M17.8,10.9c-0.8-0.8-2-0.8-2.8,0
			L4.7,21.2l-1.5,3.5l-1.4,1.4c-1.1,1.1-1,2.8,0,3.9c0.6,0.5,1.3,0.8,2,0.8s1.4-0.3,1.9-0.8l1.4-1.4l3.5-1.5l10.3-10.3
			c0.8-0.8,0.8-2,0-2.8L17.8,10.9z M9.5,25.5L6,27l-1.7,1.7c-0.1,0.1-0.4,0.2-0.6,0.1c-0.2-0.1-0.3-0.1-0.5-0.2
			c-0.3-0.3-0.3-0.8,0-1.1l1.7-1.7l1.5-3.5l10-10l3.2,3.2L9.5,25.5z"/>
	</g>
</g>
</svg>
