<?xml version="1.0" encoding="utf-8"?>
<!-- Generator: Adobe Illustrator 27.0.0, SVG Export Plug-In . SVG Version: 6.00 Build 0)  -->
<svg version="1.1" id="Layer_1" xmlns="http://www.w3.org/2000/svg" xmlns:xlink="http://www.w3.org/1999/xlink" x="0px" y="0px"
	 viewBox="0 0 37 37" style="enable-background:new 0 0 37 37;" xml:space="preserve">
<g id="Content__x2F__Notes__x2F__notes-book-text_00000163772582052916854790000011798177694453128105_">
	<g id="Group_64_00000100348514640019595220000007019179129191935122_">
		<g id="notes-book-text_00000030452900108233282450000003607583627371758781_">
			<g id="Shape_286_00000103231556378994749370000009192544709488989827_">
				<path d="M3.3,37c-1.9-0.1-3.4-1.7-3.3-3.5V8.2c-0.1-1.8,1.4-3.4,3.3-3.5h30.4c1.9,0.1,3.4,1.7,3.3,3.5v25.3
					c0.1,1.9-1.4,3.4-3.3,3.5H3.3z M33.6,6.7H3.3C2.6,6.7,2,7.4,2,8.1v25.4C2,34.3,2.6,35,3.4,35h30.3c0.7,0,1.4-0.7,1.3-1.5l0,0
					V8.2C35,7.4,34.4,6.7,33.6,6.7z M37,33.5L37,33.5L37,33.5z"/>
			</g>
			<g id="Shape_287_00000101788249690831486070000007167055016352446395_">
				<path d="M8,9C7.4,9,7,8.6,7,8V1c0-0.6,0.4-1,1-1s1,0.4,1,1v7C9,8.6,8.6,9,8,9z"/>
			</g>
			<g id="Shape_288_00000173883113881228003230000001874846670597986478_">
				<path d="M15,9c-0.6,0-1-0.4-1-1V1c0-0.6,0.4-1,1-1s1,0.4,1,1v7C16,8.6,15.6,9,15,9z"/>
			</g>
			<g id="Shape_289_00000032620625988503052810000000298544937181087914_">
				<path d="M22,9c-0.6,0-1-0.4-1-1V1c0-0.6,0.4-1,1-1s1,0.4,1,1v7C23,8.6,22.6,9,22,9z"/>
			</g>
			<g id="Shape_290_00000169519608626283914540000008474254226331058588_">
				<path d="M29,9c-0.6,0-1-0.4-1-1V1c0-0.6,0.4-1,1-1s1,0.4,1,1v7C30,8.6,29.6,9,29,9z"/>
			</g>
			<g id="Shape_291_00000084529725919886196810000005071305820814953150_">
				<path d="M26.7,16H10.3c-0.6,0-1-0.4-1-1s0.4-1,1-1h16.3c0.6,0,1,0.4,1,1S27.2,16,26.7,16z"/>
			</g>
			<g id="Shape_292_00000068638894881660265660000018065013770333535391_">
				<path d="M26.7,23H10.3c-0.6,0-1-0.4-1-1s0.4-1,1-1h16.3c0.6,0,1,0.4,1,1S27.2,23,26.7,23z"/>
			</g>
			<g id="Shape_293_00000129890183224905839030000000929253666473099402_">
				<path d="M18.5,30h-8.2c-0.6,0-1-0.4-1-1s0.4-1,1-1h8.2c0.6,0,1,0.4,1,1S19.1,30,18.5,30z"/>
			</g>
		</g>
	</g>
</g>
</svg>
